<svg id="Слой_1" data-name="Слой 1" xmlns="http://www.w3.org/2000/svg" viewBox="0 0 612.39 70.12"><defs><style>.cls-1{fill:#ffec00;}.cls-1,.cls-3,.cls-4,.cls-5{fill-rule:evenodd;}.cls-2,.cls-3{fill:#1a1a18;}.cls-4{fill:#fff;}.cls-5{fill:#d8d9d9;}</style></defs><title>prior logo</title><path class="cls-1" d="M287.28,570.2a25.36,25.36,0,1,1,25.36-25.35A25.3,25.3,0,0,1,287.28,570.2Z" transform="translate(-260.74 -518.49)"/><path class="cls-1" d="M287.28,570.2a25.36,25.36,0,1,1,25.36-25.35A25.3,25.3,0,0,1,287.28,570.2Z" transform="translate(-260.74 -518.49)"/><path class="cls-2" d="M295.2,519.69a24,24,0,0,0-7.72-1.2h-.19a26.45,26.45,0,1,0,0,52.91h.19A24.42,24.42,0,0,0,295.2,570a26.38,26.38,0,0,0,0-50.31Zm0,49.33a24.49,24.49,0,0,1-7.72,1.19h-.19a25.36,25.36,0,1,1,0-50.72h.19a24,24,0,0,1,7.72,1.4,25.32,25.32,0,0,1,0,48.13Z" transform="translate(-260.74 -518.49)"/><path class="cls-2" d="M304.91,532.36a14.61,14.61,0,0,1,1,5c0,7.32-7.33,10.29-10.3,10.1h-.4c-.38,0-.59-.19-.59-.39,0-.6.2-1,.59-1a.64.64,0,0,1,.4-.19c.8,0,1,.19,1.78.19s1-.6,1.39-1.4a2.41,2.41,0,0,0,.58-1.78c0-1.58-1.59-4.75-2.37-7.72,0,.79,0,2.56-.78,2.56a1.09,1.09,0,0,1-1-.59c-.38-.59-.78-1.38-1.17-2a9.87,9.87,0,0,1,0,2.37c0,.78-.21,1.38-.6,1.38s-1-.6-1-2,.19-2.39.19-4.76a8.17,8.17,0,0,0-5.15-7.72,9.29,9.29,0,0,0-2.37-.4c-6.93,0-7.73,6.33-8.11,6.52s-.8-1.17-3-1.17c-2.57,0-5.35,3.37-6.33,5.36A21.86,21.86,0,0,0,265.09,545a22.11,22.11,0,0,0,22.19,22h.19a19.73,19.73,0,0,0,7.72-1.59A21.74,21.74,0,0,0,309.27,545a22.15,22.15,0,0,0-4.16-12.87Zm-17.43,11.49a11.55,11.55,0,0,1-2.57-7.34c0-1.37.41-1.58.8-1.58.8,0,1.19,1.19,1.77,2.77a4,4,0,0,0,.8,1.59c.6,1.39,1,2.18,1.58,3.57a7.62,7.62,0,0,0,.2,3A31.93,31.93,0,0,1,287.47,543.85Zm7.72,13.66a4.65,4.65,0,0,1-4.55-4.75,5.91,5.91,0,0,1,1-3c1,1.38,2.38,2.38,3.55,1.38l.2-.2c1-1,.2-2.37-.2-2.77a4.66,4.66,0,0,1,4.76,4.56A4.82,4.82,0,0,1,295.2,557.52Z" transform="translate(-260.74 -518.49)"/><polygon class="cls-2" points="118.06 42.8 123.22 26.76 129.35 7.33 123.22 7.33 80.23 7.33 68.93 42.8 87.36 42.8 95.09 17.84 107.56 17.84 99.65 42.8 118.06 42.8"/><path class="cls-2" d="M425.74,549.4c.4-.79,2.18-6.33-.59-9.89h0c-1.58-2.19-4.55-3.57-9.91-3.57a16.93,16.93,0,0,0-10.5,3.17,11.39,11.39,0,0,0-2.18,2l1.59-4.55H388.9L384,552l-6.14,19.42H394l4.36-13.28c.79,1.19,2.17,3,6.34,3.57a11.79,11.79,0,0,0,2.58.19c11.09,0,15.85-6.54,17.83-10.7A9.28,9.28,0,0,0,425.74,549.4Zm-16.84,0c-.4,1.19-1.39,4-4.16,4.75a3.73,3.73,0,0,1-1.59.4c-4,0-3-3.76-2.37-5.56.6-1.39,1.38-4.15,4-4.95.6,0,1-.19,1.6-.19,4.15,0,3,3.75,2.56,5.55Z" transform="translate(-260.74 -518.49)"/><polygon class="cls-2" points="420.54 18.03 417.77 18.03 404.3 18.03 401.52 26.76 395.77 26.76 398.55 18.03 382.11 18.03 375.58 38.24 374.19 42.8 375.58 42.8 390.63 42.8 393.39 33.88 399.14 33.88 396.37 42.8 412.61 42.8 417.77 26.76 420.54 18.03"/><polygon class="cls-2" points="467.29 18.03 448.67 18.03 435.99 27.94 442.73 7.13 426.28 7.13 417.77 34.1 414.99 42.8 417.77 42.8 431.24 42.8 435.2 30.72 440.56 42.8 459.76 42.8 452.23 28.93 467.29 18.03"/><path class="cls-2" d="M637.5,546.22c.2-.78.2-1.37.4-2a4.89,4.89,0,0,0-1.59-4.56c-2-2.18-6.54-3.76-16.25-3.76H616.3a74.57,74.57,0,0,0-10.89,1.38l-2.18,6.94a48.78,48.78,0,0,1,12.09-2h1c6.14.19,6.73,1.77,6.54,3a.73.73,0,0,1-.21.59,52.45,52.45,0,0,0-6.13-.4h-.2c-12.28,0-17.43,4-19.61,7.53a11.65,11.65,0,0,0-.79,2.37,4.2,4.2,0,0,0,.79,3.77c1.58,1.77,5.15,2.77,9.51,2.77a21,21,0,0,0,10.1-2.37c1-.8,1.78-1.4,2.37-1.79l-1.18,3.56h15.25l3.57-11.68Zm-16.43,5a7.06,7.06,0,0,1-2.39,3.17,11.79,11.79,0,0,1-2.37,1,5.69,5.69,0,0,1-1.78.19c-2.18,0-3.36-.58-3.17-1.77v-.6a4.17,4.17,0,0,1,3.17-2.37c.59,0,1-.2,1.78-.2a15.71,15.71,0,0,1,3.37-.2h1.59Z" transform="translate(-260.74 -518.49)"/><path class="cls-2" d="M597.48,547.22a7.66,7.66,0,0,0-.79-5.76c-1.59-3-5.94-5.35-14.85-5.35a37.84,37.84,0,0,0-5.16.4c-2.57.59-4.54,1.78-7.33,3.77.4-2.77,3.37-5.15,5.94-6.14a2.85,2.85,0,0,1,1.38-.4,57.81,57.81,0,0,1,7.54-1.39,36.11,36.11,0,0,0,6.92-1.19l.2-.39,4-12.29c-.6,0-1.2.21-1.78.21-2.78.39-5.55.79-8.52,1.19a42.55,42.55,0,0,0-8.33,2.18c-.39,0-.59.2-1,.2a30.67,30.67,0,0,0-8.91,6.14,45.37,45.37,0,0,0-7.53,12.27,36,36,0,0,0-3.37,9.91c-.2.39-3.37,11.28,16.44,11.28a31.89,31.89,0,0,0,4.35-.19c13.47-1,18.22-7.53,20-12.08A10.49,10.49,0,0,0,597.48,547.22ZM580,548.61c-.59,1.78-1.39,4.75-3.37,5.74a3.23,3.23,0,0,1-2,.4c-3.17,0-2.38-3.37-1.39-6.34a7.33,7.33,0,0,1,3.37-4.75,3.72,3.72,0,0,1,1.59-.4C581.64,543.25,580.84,546.22,580,548.61Z" transform="translate(-260.74 -518.49)"/><path class="cls-2" d="M543.81,535.93a17.17,17.17,0,0,0-10.44,3.13l0,0h0a22.73,22.73,0,0,0-2.18,2l1.58-4.55H517.45l-7.72,24.57-3.37,10.31h16.44L527,558.11c.79,1.19,2.38,3,6.34,3.57a12.61,12.61,0,0,0,2.77.19c12.88,0,17.43-9.11,18.42-12.48C555.48,545.84,557.86,535.93,543.81,535.93Zm-6.35,13.47c-.39,1.39-1.38,4.15-4.15,4.75a3.89,3.89,0,0,1-1.59.4c-4,0-3-3.76-2.38-5.56.39-1.39,1.58-4,4-4.74h0a5.59,5.59,0,0,1,1.78-.4C539.06,543.85,538.06,547.61,537.46,549.4Z" transform="translate(-260.74 -518.49)"/><path class="cls-2" d="M509.73,553.36a18.09,18.09,0,0,0,3-5.94,7.44,7.44,0,0,0-3-8.52c-2.58-1.79-7.13-3-14.45-3a27.69,27.69,0,0,0-4.17.19c-13.66,1-18.42,6.74-20.2,10.3a12.07,12.07,0,0,1-.6,2c-.39,1.59-1.39,5.35.6,8.32,2,2.78,6.34,5.15,16,5.15a30.35,30.35,0,0,0,4.16-.19C501.42,560.88,506.75,557.12,509.73,553.36Zm-14.86-5c-.59,1.79-1.38,4.75-3.76,5.94a5.64,5.64,0,0,1-2,.4c-3.75,0-2.18-4.15-1.37-6.34a7.08,7.08,0,0,1,3.35-4.95,5.74,5.74,0,0,1,1.78-.39C496.46,543.07,495.46,546.43,494.87,548.4Z" transform="translate(-260.74 -518.49)"/><polygon class="cls-2" points="211.56 18.03 210.17 18.03 191.74 18.03 180.06 32.69 185.41 18.03 170.75 18.03 164.41 37.84 162.83 42.8 164.41 42.8 182.24 42.8 194.53 27.73 188.98 42.8 203.63 42.8 210.17 22 211.56 18.03"/><path class="cls-3" d="M861.76,532.18c0,.14.07.28.1.42C861.83,532.46,861.8,532.32,861.76,532.18Z" transform="translate(-260.74 -518.49)"/><path class="cls-3" d="M861.29,530.87l.14.35Z" transform="translate(-260.74 -518.49)"/><path class="cls-3" d="M861,530.29l.17.32Z" transform="translate(-260.74 -518.49)"/><path class="cls-3" d="M861.54,531.5c0,.12.08.25.12.38C861.63,531.75,861.59,531.63,861.54,531.5Z" transform="translate(-260.74 -518.49)"/><path class="cls-3" d="M862.06,533.69c0,.18,0,.37.06.55C862.1,534.06,862.09,533.87,862.06,533.69Z" transform="translate(-260.74 -518.49)"/><path class="cls-3" d="M861.93,532.91c0,.15.05.31.08.47C862,533.22,862,533.06,861.93,532.91Z" transform="translate(-260.74 -518.49)"/><path class="cls-3" d="M862.15,534.52c0,.29,0,.58,0,.89C862.18,535.1,862.17,534.81,862.15,534.52Z" transform="translate(-260.74 -518.49)"/><path class="cls-3" d="M833.15,542a8.91,8.91,0,0,1-.49,1A8.82,8.82,0,0,0,833.15,542Z" transform="translate(-260.74 -518.49)"/><path class="cls-3" d="M832.52,543.16l.14-.22-.14.22Z" transform="translate(-260.74 -518.49)"/><path class="cls-3" d="M833.83,539.64a10.35,10.35,0,0,1-.47,1.81A10.3,10.3,0,0,0,833.83,539.64Z" transform="translate(-260.74 -518.49)"/><path class="cls-3" d="M837.75,561.27h0Z" transform="translate(-260.74 -518.49)"/><polygon class="cls-3" points="571.78 37.7 574.87 42.78 571.78 37.7 571.78 37.7"/><path class="cls-3" d="M834,537.49a13.28,13.28,0,0,1-.08,1.47,13.28,13.28,0,0,0,.08-1.47,14.56,14.56,0,0,0-1.48-7.06h0A14.57,14.57,0,0,1,834,537.49Z" transform="translate(-260.74 -518.49)"/><path class="cls-4" d="M832.09,543.78c.15-.19.29-.4.42-.62h0C832.38,543.38,832.24,543.59,832.09,543.78Z" transform="translate(-260.74 -518.49)"/><path class="cls-4" d="M860.53,529.53l.15.22Z" transform="translate(-260.74 -518.49)"/><path class="cls-4" d="M858.92,527.86l.11.09Z" transform="translate(-260.74 -518.49)"/><path class="cls-4" d="M857.3,526.89l.21.1Z" transform="translate(-260.74 -518.49)"/><path class="cls-4" d="M859.36,528.22l.15.15Z" transform="translate(-260.74 -518.49)"/><path class="cls-4" d="M859.77,528.61l.16.18Z" transform="translate(-260.74 -518.49)"/><path class="cls-4" d="M860.16,529l.16.2Z" transform="translate(-260.74 -518.49)"/><path class="cls-4" d="M858.34,527.46l.13.08Z" transform="translate(-260.74 -518.49)"/><path class="cls-4" d="M858,527.25l-.13-.07h0Z" transform="translate(-260.74 -518.49)"/><path class="cls-4" d="M861,530.26l-.12-.22.12.22Z" transform="translate(-260.74 -518.49)"/><path class="cls-4" d="M856.79,526.67l.22.09Z" transform="translate(-260.74 -518.49)"/><path class="cls-4" d="M855.25,526.17l.23.06Z" transform="translate(-260.74 -518.49)"/><path class="cls-4" d="M857.86,527.17l-.05,0,.05,0Z" transform="translate(-260.74 -518.49)"/><path class="cls-4" d="M854.74,526.05l.23.05Z" transform="translate(-260.74 -518.49)"/><path class="cls-4" d="M855.77,526.31l.23.07Z" transform="translate(-260.74 -518.49)"/><path class="cls-4" d="M856.28,526.48l.23.08Z" transform="translate(-260.74 -518.49)"/><path class="cls-4" d="M862,533.37c0,.1,0,.21.05.31C862,533.58,862,533.48,862,533.37Z" transform="translate(-260.74 -518.49)"/><path class="cls-4" d="M861,530.29v0h0Z" transform="translate(-260.74 -518.49)"/><path class="cls-4" d="M862.12,534.24c0,.09,0,.18,0,.28C862.14,534.43,862.13,534.34,862.12,534.24Z" transform="translate(-260.74 -518.49)"/><path class="cls-4" d="M861.17,530.61l.12.27Z" transform="translate(-260.74 -518.49)"/><path class="cls-4" d="M861.67,531.88l.09.3Z" transform="translate(-260.74 -518.49)"/><path class="cls-4" d="M861.86,532.6c0,.1,0,.21.07.31C861.91,532.8,861.88,532.7,861.86,532.6Z" transform="translate(-260.74 -518.49)"/><path class="cls-4" d="M861.43,531.22l.11.28Z" transform="translate(-260.74 -518.49)"/><path class="cls-3" d="M861,525.65v1.6c1.64,1.64,3,4.19,3,8.15a9.16,9.16,0,0,1-3,7.27,9.63,9.63,0,0,1,4.63,8.23,10.61,10.61,0,0,1-3.14,7.82A12.37,12.37,0,0,1,861,560v1.26h12.14V525.65Z" transform="translate(-260.74 -518.49)"/><path class="cls-3" d="M863.84,550.9a7.54,7.54,0,0,0-2.85-6,11,11,0,0,0-4.16-2.08,6.91,6.91,0,0,0,4.16-2.87,7.91,7.91,0,0,0,1.2-4.53c0-.31,0-.6,0-.89,0-.1,0-.19,0-.28s0-.38-.06-.55,0-.21-.05-.31,0-.31-.08-.47,0-.21-.07-.31-.07-.28-.1-.42l-.09-.3c0-.13-.08-.25-.12-.38l-.11-.28-.14-.35-.12-.26-.17-.32v0l-.12-.22-.19-.3-.15-.22-.21-.28-.16-.2-.23-.26-.16-.18-.26-.25-.15-.15-.33-.27-.11-.09-.45-.32-.13-.08-.34-.21-.13-.07-.05,0-.3-.16-.21-.1-.29-.13-.22-.09-.29-.11-.23-.08-.29-.1-.23-.07-.28-.08-.23-.06-.28-.07-.23-.05-.29-.06-.22,0-.29,0-.21,0-.31,0-.19,0-.33,0-.16,0-.92-.06h-8.4v0H832.52v1.68c2,2,3.31,5.18,3.32,10.16a11.57,11.57,0,0,1-3.32,8.57v6.59l4.65,7.66.58,1h14.12a15,15,0,0,0,9.12-3.62A8.84,8.84,0,0,0,863.84,550.9Zm-19.16-17h2.4a2.87,2.87,0,0,1,3.13,2.63c0,1.47-1.37,2.61-3.19,2.67h-2.34ZM848,552.67h-3.28v-5.88h3.73a2.87,2.87,0,0,1,2.91,2.92A3.2,3.2,0,0,1,848,552.67Z" transform="translate(-260.74 -518.49)"/><path class="cls-3" d="M830.68,553.17,827,547.11a8.51,8.51,0,0,0,2.22-.87,9.59,9.59,0,0,0,1-.6l.5-.39c.16-.13.32-.27.48-.42a8.78,8.78,0,0,0,.63-.67l.3-.38c.15-.19.29-.4.42-.62l.14-.22a8.83,8.83,0,0,0,.49-1c.08-.17.15-.35.21-.53a10.3,10.3,0,0,0,.47-1.81q.06-.33.09-.68a13.28,13.28,0,0,0,.08-1.47,14.57,14.57,0,0,0-1.48-7.06,8.57,8.57,0,0,0-.6-.95,7.52,7.52,0,0,0-.68-.81c-.18-.18-.36-.35-.55-.51l-.35-.28c-.18-.13-.36-.26-.55-.38l-.58-.33a9.53,9.53,0,0,0-.94-.44,11.55,11.55,0,0,0-1.14-.38,16.55,16.55,0,0,0-2.45-.48c-.42-.05-.85-.09-1.28-.12l-1.3-.07-.66,0-1.32,0h-16.9v35.62h12.14V547.77l6.72,13.49H835.6l-3.08-5.08Zm-9.59-13.55a3.19,3.19,0,0,1-.52.79l-.23.23a3.47,3.47,0,0,1-.52.39,3.69,3.69,0,0,1-1.95.55h-2.55v-6.36h2.62l.36,0a3.76,3.76,0,0,1,.67.12l.39.14a3.35,3.35,0,0,1,1,.64,3.12,3.12,0,0,1,.41.47l.17.26a3,3,0,0,1,.4,1.52A3,3,0,0,1,821.09,539.62Z" transform="translate(-260.74 -518.49)"/><path class="cls-3" d="M771.79,576.3h3.62a4.82,4.82,0,0,1-1.64,2.72,4.3,4.3,0,0,1-2.89,1.15,3.49,3.49,0,0,1-3-1.47,5.42,5.42,0,0,1-1-3.3,8.18,8.18,0,0,1,.09-1.2,8.43,8.43,0,0,1,1.86-4.12,5,5,0,0,1,3.92-2,3.45,3.45,0,0,1,2.24.77,3.85,3.85,0,0,1,1.22,1.95l3.19-1.58a5.76,5.76,0,0,0-2.3-3,6.75,6.75,0,0,0-3.79-1.06,9.08,9.08,0,0,0-6.52,2.69,11.11,11.11,0,0,0-3.26,6.36,9.9,9.9,0,0,0-.14,1.63,7.45,7.45,0,0,0,1.79,5.14,6.39,6.39,0,0,0,5.07,2.15,8.22,8.22,0,0,0,6.29-2.74A12,12,0,0,0,779.5,574l.07-.43h-7.36Z" transform="translate(-260.74 -518.49)"/><path class="cls-3" d="M796.55,572.7h0l.18-1.15h-3.16l-1.77,11.11h3.16l.79-5a7.17,7.17,0,0,1,.77-2.48,2.5,2.5,0,0,1,2.24-1.21,1.89,1.89,0,0,1,1.25.43l.84-2.94a3.32,3.32,0,0,0-1.27-.27A3.71,3.71,0,0,0,796.55,572.7Z" transform="translate(-260.74 -518.49)"/><path class="cls-3" d="M819,571.18a6.54,6.54,0,0,0-4.47,1.66,7.34,7.34,0,0,0-2.39,5.38,4.66,4.66,0,0,0,1.35,3.47,5,5,0,0,0,3.63,1.32,6.6,6.6,0,0,0,4.49-1.65,6.87,6.87,0,0,0,2.3-4.26A7.05,7.05,0,0,0,824,576a4.66,4.66,0,0,0-1.36-3.5A5,5,0,0,0,819,571.18Zm.85,7.84a2.84,2.84,0,0,1-2.28,1.21,2,2,0,0,1-1.64-.8,2.81,2.81,0,0,1-.55-1.78,4,4,0,0,1,.89-2.48,2.9,2.9,0,0,1,2.31-1.21,1.92,1.92,0,0,1,1.61.75,2.89,2.89,0,0,1,.58,1.82A3.89,3.89,0,0,1,819.85,579Z" transform="translate(-260.74 -518.49)"/><path class="cls-3" d="M844.14,577.57q-.46,2.78-2.29,2.78-1.49,0-1.49-1.72a4.66,4.66,0,0,1,.15-1.06l.93-6h-3.16l-1,6.54a7.19,7.19,0,0,0-.11,1.22q0,3.71,4.3,3.71,5,0,5.77-4.93l1-6.54h-3.16Z" transform="translate(-260.74 -518.49)"/><path class="cls-3" d="M872,572.63a3.81,3.81,0,0,0-3.15-1.45,4.49,4.49,0,0,0-3.29,1.38l.16-1h-3.16l-2.69,17.06H863l1.08-7h0a2.85,2.85,0,0,0,2.74,1.4,5.56,5.56,0,0,0,4.46-2.26A7.34,7.34,0,0,0,873,576,5.13,5.13,0,0,0,872,572.63ZM868.9,579a2.87,2.87,0,0,1-2.27,1.21,2,2,0,0,1-1.64-.8,2.92,2.92,0,0,1-.55-1.8,3.81,3.81,0,0,1,.91-2.46,2.83,2.83,0,0,1,2.27-1.21,1.9,1.9,0,0,1,1.61.8,2.75,2.75,0,0,1,.57,1.78A3.9,3.9,0,0,1,868.9,579Z" transform="translate(-260.74 -518.49)"/><polygon class="cls-5" points="502.95 7.12 538.54 7.12 538.55 42.74 502.95 42.72 502.95 7.12"/><polygon class="cls-3" points="502.95 7.12 538.54 7.12 538.55 42.74 502.95 42.72 502.95 7.12"/><polygon class="cls-1" points="503.91 41.74 503.9 8.12 537.54 8.12 537.51 41.75 503.91 41.74"/><path class="cls-3" d="M781.43,547.7l10.71,10.69,4.19-4.19-10.72-10.71,2.09-2.07v-4.17l1.49-1.49v3.46l1.46,1.44,5.23-5.24,1.41,1.4a9.39,9.39,0,0,0-2.75-6.43,4.48,4.48,0,0,0-6.54-.17L783,535.26l1.26,1.26-2.78,2.77-2.78-2.77,1.26-1.26-5.05-5.05a4.48,4.48,0,0,0-6.54.17,9.25,9.25,0,0,0-2.7,6.43l1.36-1.4,5.23,5.24,1.46-1.45v-3.44l1.49,1.49v4.16l2.09,2.08-10.62,10.61,4.19,4.18Z" transform="translate(-260.74 -518.49)"/></svg>